<?xml version="1.0" standalone="no"?>
<!DOCTYPE svg PUBLIC "-//W3C//DTD SVG 20010904//EN"
 "http://www.w3.org/TR/2001/REC-SVG-20010904/DTD/svg10.dtd">
<svg version="1.0" xmlns="http://www.w3.org/2000/svg"
 width="180.000000pt" height="170.000000pt" viewBox="0 0 180.000000 170.000000"
 preserveAspectRatio="xMidYMid meet">

<g transform="translate(0.000000,170.000000) scale(0.100000,-0.100000)"
fill="#000000" stroke="none">
<path d="M0 850 l0 -850 900 0 900 0 0 850 0 850 -900 0 -900 0 0 -850z m1258
488 c7 -7 12 -21 12 -32 0 -14 -135 -156 -402 -423 -334 -334 -408 -403 -430
-403 -21 0 -29 6 -34 26 -6 24 28 61 402 435 225 225 416 409 424 409 9 0 21
-5 28 -12z m90 -460 c7 -7 12 -19 12 -28 0 -20 -440 -460 -461 -460 -21 0 -39
20 -39 44 0 29 427 456 455 456 12 0 26 -5 33 -12z"/>
</g>
</svg>
